{
  "accessors": [
    {
      "bufferView": 2,
      "componentType": 5126,
      "count": 31946,
      "max": [
        25.668521881103516,
        135.93353271484375,
        -8.852598190307617
      ],
      "min": [
        -21.638038635253906,
        74.3000259399414,
        -25.680761337280273
      ],
      "type": "VEC3"
    },
    {
      "bufferView": 2,
      "byteOffset": 383352,
      "componentType": 5126,
      "count": 31946,
      "max": [
        0.999879777431488,
        0.9997043609619141,
        0.9999932646751404
      ],
      "min": [
        -0.9999319911003113,
        -0.9998572468757629,
        -0.9999926686286926
      ],
      "type": "VEC3"
    },
    {
      "bufferView": 3,
      "componentType": 5126,
      "count": 31946,
      "max": [
        0.999090313911438,
        0.9996485114097595,
        0.9997435808181763,
        1.0
      ],
      "min": [
        -0.9999865293502808,
        -0.9999972581863403,
        -0.9999979734420776,
        -1.0
      ],
      "type": "VEC4"
    },
    {
      "bufferView": 1,
      "componentType": 5126,
      "count": 31946,
      "max": [
        0.9980469942092896,
        0.9617859721183777
      ],
      "min": [
        0.0019529999699443579,
        0.0019529999699443579
      ],
      "type": "VEC2"
    },
    {
      "bufferView": 0,
      "componentType": 5125,
      "count": 186387,
      "type": "SCALAR"
    },
    {
      "bufferView": 2,
      "byteOffset": 766704,
      "componentType": 5126,
      "count": 23783,
      "max": [
        10.980960845947266,
        108.490966796875,
        -7.660641193389893
      ],
      "min": [
        -11.28307056427002,
        85.68535614013672,
        -20.577436447143555
      ],
      "type": "VEC3"
    },
    {
      "bufferView": 2,
      "byteOffset": 1052100,
      "componentType": 5126,
      "count": 23783,
      "max": [
        0.9997764825820923,
        0.9999386668205261,
        0.9999989867210388
      ],
      "min": [
        -0.9999151229858398,
        -0.9999997615814209,
        -0.9999897480010986
      ],
      "type": "VEC3"
    },
    {
      "bufferView": 3,
      "byteOffset": 511136,
      "componentType": 5126,
      "count": 23783,
      "max": [
        0.9996740818023682,
        0.9999962449073792,
        0.999975860118866,
        1.0
      ],
      "min": [
        -0.9999250769615173,
        -0.9996537566184998,
        -0.9998254179954529,
        1.0
      ],
      "type": "VEC4"
    },
    {
      "bufferView": 1,
      "byteOffset": 255568,
      "componentType": 5126,
      "count": 23783,
      "max": [
        0.9812340140342712,
        0.9980469942092896
      ],
      "min": [
        0.0019529999699443579,
        0.0019529999699443579
      ],
      "type": "VEC2"
    },
    {
      "bufferView": 0,
      "byteOffset": 745548,
      "componentType": 5125,
      "count": 137892,
      "type": "SCALAR"
    },
    {
      "bufferView": 2,
      "byteOffset": 1337496,
      "componentType": 5126,
      "count": 12842,
      "max": [
        8.707612991333008,
        105.50240325927734,
        -7.509108066558838
      ],
      "min": [
        -9.168024063110352,
        87.48521423339844,
        -20.509693145751953
      ],
      "type": "VEC3"
    },
    {
      "bufferView": 2,
      "byteOffset": 1491600,
      "componentType": 5126,
      "count": 12842,
      "max": [
        0.9989757537841797,
        0.9999183416366577,
        0.9999773502349854
      ],
      "min": [
        -0.9998737573623657,
        -0.9992827773094177,
        -0.9998852610588074
      ],
      "type": "VEC3"
    },
    {
      "bufferView": 3,
      "byteOffset": 891664,
      "componentType": 5126,
      "count": 12842,
      "max": [
        0.9992384910583496,
        0.9998554587364197,
        0.9999443292617798,
        1.0
      ],
      "min": [
        -0.9997441172599792,
        -0.9998734593391418,
        -0.9999936819076538,
        1.0
      ],
      "type": "VEC4"
    },
    {
      "bufferView": 1,
      "byteOffset": 445832,
      "componentType": 5126,
      "count": 12842,
      "max": [
        0.9980469942092896,
        0.9918749928474426
      ],
      "min": [
        0.0019529999699443579,
        0.0019529999699443579
      ],
      "type": "VEC2"
    },
    {
      "bufferView": 0,
      "byteOffset": 1297116,
      "componentType": 5125,
      "count": 71886,
      "type": "SCALAR"
    }
  ],
  "asset": {
    "extras": {
      "author": "Andy Woodhead (https://sketchfab.com/Andywoodhead)",
      "license": "CC-BY-4.0 (http://creativecommons.org/licenses/by/4.0/)",
      "source": "https://sketchfab.com/3d-models/leather-wrist-guard-free-asset-0b9929633fd5458c8f234eb9d415ac06",
      "title": "Leather wrist guard - free asset"
    },
    "generator": "Sketchfab-13.58.0",
    "version": "2.0"
  },
  "bufferViews": [
    {
      "buffer": 0,
      "byteLength": 1584660,
      "name": "floatBufferViews",
      "target": 34963
    },
    {
      "buffer": 0,
      "byteLength": 548568,
      "byteOffset": 1584660,
      "byteStride": 8,
      "name": "floatBufferViews",
      "target": 34962
    },
    {
      "buffer": 0,
      "byteLength": 1645704,
      "byteOffset": 2133228,
      "byteStride": 12,
      "name": "floatBufferViews",
      "target": 34962
    },
    {
      "buffer": 0,
      "byteLength": 1097136,
      "byteOffset": 3778932,
      "byteStride": 16,
      "name": "floatBufferViews",
      "target": 34962
    }
  ],
  "buffers": [
    {
      "byteLength": 4876068,
      "uri": "scene.bin"
    }
  ],
  "images": [
    {
      "uri": "textures/Straps_baseColor.jpeg"
    },
    {
      "uri": "textures/Straps_metallicRoughness.png"
    },
    {
      "uri": "textures/Straps_normal.png"
    },
    {
      "uri": "textures/Guard_baseColor.jpeg"
    },
    {
      "uri": "textures/Guard_metallicRoughness.png"
    },
    {
      "uri": "textures/Guard_normal.png"
    },
    {
      "uri": "textures/material_baseColor.jpeg"
    },
    {
      "uri": "textures/material_metallicRoughness.png"
    },
    {
      "uri": "textures/material_normal.png"
    }
  ],
  "materials": [
    {
      "doubleSided": true,
      "name": "Straps",
      "normalTexture": {
        "index": 2
      },
      "occlusionTexture": {
        "index": 1
      },
      "pbrMetallicRoughness": {
        "baseColorTexture": {
          "index": 0
        },
        "metallicRoughnessTexture": {
          "index": 1
        }
      }
    },
    {
      "doubleSided": true,
      "name": "Guard",
      "normalTexture": {
        "index": 5
      },
      "occlusionTexture": {
        "index": 4
      },
      "pbrMetallicRoughness": {
        "baseColorTexture": {
          "index": 3
        },
        "metallicRoughnessTexture": {
          "index": 4
        }
      }
    },
    {
      "doubleSided": true,
      "name": "material",
      "normalTexture": {
        "index": 8
      },
      "occlusionTexture": {
        "index": 7
      },
      "pbrMetallicRoughness": {
        "baseColorTexture": {
          "index": 6
        },
        "metallicRoughnessTexture": {
          "index": 7
        }
      }
    }
  ],
  "meshes": [
    {
      "name": "defaultMaterial",
      "primitives": [
        {
          "attributes": {
            "NORMAL": 1,
            "POSITION": 0,
            "TANGENT": 2,
            "TEXCOORD_0": 3
          },
          "indices": 4,
          "material": 2,
          "mode": 4
        }
      ]
    },
    {
      "name": "defaultMaterial",
      "primitives": [
        {
          "attributes": {
            "NORMAL": 6,
            "POSITION": 5,
            "TANGENT": 7,
            "TEXCOORD_0": 8
          },
          "indices": 9,
          "material": 1,
          "mode": 4
        }
      ]
    },
    {
      "name": "defaultMaterial",
      "primitives": [
        {
          "attributes": {
            "NORMAL": 11,
            "POSITION": 10,
            "TANGENT": 12,
            "TEXCOORD_0": 13
          },
          "indices": 14,
          "material": 0,
          "mode": 4
        }
      ]
    }
  ],
  "nodes": [
    {
      "children": [
        1
      ],
      "matrix": [
        1.0,
        0.0,
        0.0,
        0.0,
        0.0,
        2.220446049250313e-16,
        -1.0,
        0.0,
        0.0,
        1.0,
        2.220446049250313e-16,
        0.0,
        0.0,
        0.0,
        0.0,
        1.0
      ],
      "name": "Sketchfab_model"
    },
    {
      "children": [
        2,
        4,
        6
      ],
      "matrix": [
        1.0,
        0.0,
        0.0,
        0.0,
        0.0,
        -4.371139006309477e-08,
        0.999999999999999,
        0.0,
        0.0,
        -0.999999999999999,
        -4.371139006309477e-08,
        0.0,
        0.0,
        0.0,
        0.0,
        1.0
      ],
      "name": "Collada visual scene group"
    },
    {
      "children": [
        3
      ],
      "name": "arm"
    },
    {
      "mesh": 0,
      "name": "defaultMaterial"
    },
    {
      "children": [
        5
      ],
      "name": "Guard"
    },
    {
      "mesh": 1,
      "name": "defaultMaterial"
    },
    {
      "children": [
        7
      ],
      "name": "Straps"
    },
    {
      "mesh": 2,
      "name": "defaultMaterial"
    }
  ],
  "samplers": [
    {
      "magFilter": 9729,
      "minFilter": 9987,
      "wrapS": 10497,
      "wrapT": 10497
    }
  ],
  "scene": 0,
  "scenes": [
    {
      "name": "Sketchfab_Scene",
      "nodes": [
        0
      ]
    }
  ],
  "textures": [
    {
      "sampler": 0,
      "source": 0
    },
    {
      "sampler": 0,
      "source": 1
    },
    {
      "sampler": 0,
      "source": 2
    },
    {
      "sampler": 0,
      "source": 3
    },
    {
      "sampler": 0,
      "source": 4
    },
    {
      "sampler": 0,
      "source": 5
    },
    {
      "sampler": 0,
      "source": 6
    },
    {
      "sampler": 0,
      "source": 7
    },
    {
      "sampler": 0,
      "source": 8
    }
  ]
}
